<?xml version="1.0" encoding="UTF-8"?>
<svg id="Layer_2" xmlns="http://www.w3.org/2000/svg" viewBox="0 0 484.81 222.91">
    <defs>
        <style>.cls-1,.cls-2{stroke-width:0px}</style>
    </defs>
    <g id="Layer_1-2">
        <path class="cls-1" fill="#E0CA8D" d="m346.69,0c2.33,2.23,4.64,4.48,7,6.68,6.61,6.2,13.24,12.39,19.86,18.58.29.27.57.55,1.03,1-1.78.14-3.34.26-5.17.4.43.4.72.68,1.02.95,5.25,4.8,10.49,9.6,15.74,14.39,2.66,2.42,3.5,5.33,2.84,8.88-1.05,5.68,1.23,10.3,5.28,14.04,5.52,5.09,11.99,7.3,19.53,5.59,1.47-.33,2.78.08,3.88,1.09,1.65,1.51,3.26,3.07,4.88,4.6.23.22.47.41.77.67.99-1.05,1.94-2.07,3-3.19-.9-.83-1.72-1.69-2.64-2.43-3.01-2.43-4.06-5.47-3.19-9.26,1.25-5.4-.66-9.93-4.25-13.82-3.99-4.33-8.93-7.01-14.9-7.25-1.94-.08-3.96.39-5.85.93-1.56.44-2.76.32-3.95-.78-4.88-4.55-9.79-9.07-14.68-13.6-.2-.18-.37-.4-.67-.72h108.59c-.36.39-.62.71-.92.99-7.19,6.81-14.4,13.6-21.57,20.44-7.32,6.97-14.6,13.98-21.89,20.98-6.36,6.11-12.15,12.69-16.89,20.16-5.52,8.72-8.9,18.22-9.89,28.46-.64,6.67-1,13.38-1.06,20.08-.12,12.58.02,25.17.12,37.76.05,5.39.12,10.79.48,16.16.23,3.32.86,6.65,1.62,9.9,1.19,5.07,4.69,7.81,9.75,8.34,3.8.39,7.65.35,11.48.54.87.04,1.75.19,2.58.45,1.54.48,2.15,1.4,2.14,2.93-.01,1.5-.64,2.49-2.25,2.81-1.71.34-3.48.48-5.22.49-16.87.03-33.74.04-50.61,0-1.62,0-3.25-.31-4.85-.62-1.3-.25-2.38-1.09-2.52-2.42-.15-1.34.82-2.37,1.97-2.9.98-.45,2.14-.66,3.23-.73,3.51-.22,7.03-.18,10.53-.52,6.25-.62,9.52-3.84,10.58-10.04,1.16-6.87,1.78-13.77,1.75-20.74-.06-12.59-.02-25.17-.1-37.76-.04-6.63-.03-13.27-.43-19.88-.97-15.88-6.68-29.95-17.41-41.72-6.54-7.17-13.56-13.9-20.48-20.71-6.6-6.51-13.31-12.9-20.04-19.28-4.26-4.04-8.63-7.96-12.94-11.95-.3-.27-.41-.74-.62-1.11.41-.16.81-.45,1.22-.45,11.27-.02,22.55-.02,33.82-.02.43,0,.86,0,1.64,0-8.45-7.76-16.66-15.3-24.89-22.85,1.14-1.21,2.23-2.37,3.32-3.53.08,0,.16,0,.24,0Z"/>
        <path class="cls-1" fill="#E0CA8D" d="m31.78,107.69c2.29-3.45,4.59-6.9,6.88-10.36,13.17-19.83,26.35-39.64,39.46-59.51.93-1.42,1.52-3.16,1.87-4.84.45-2.16-.89-3.8-3.06-4.25-.27-.06-.58-.04-.82-.17-.3-.17-.53-.45-.79-.68.29-.26.55-.71.86-.75.99-.1,2-.04,3-.04,5.28,0,10.56,0,15.83,0,.28,0,.59-.08.83.02.32.13.59.39.88.59-.27.28-.52.8-.8.82-5.58.39-9.21,3.75-12.1,8.07-8.14,12.19-16.2,24.43-24.29,36.65-5.71,8.62-11.43,17.24-17.14,25.87-.21.32-.41.65-.73,1.16h2.18c4.44,0,8.88.02,13.31-.02.84,0,1.25.2,1.52,1.06,10.57,33.13,21.17,66.26,31.76,99.38.51,1.6.89,3.25,1.54,4.78,2.19,5.22,5.57,9.1,11.59,9.87.3.04.55.41.82.62-.28.23-.53.5-.84.66-.19.1-.47.03-.71.03-13.11,0-26.23,0-39.34-.02-.45,0-.9-.27-1.35-.42.45-.29.88-.8,1.36-.85,3.49-.39,5.5-2.92,4.71-6.46-.72-3.18-1.77-6.29-2.72-9.42-9.25-30.5-18.51-60.99-27.76-91.48-.1-.33-.22-.66-.38-1.16-1.94,2.98-3.8,5.81-5.62,8.67-.21.34-.24.83-.24,1.26-.01,29.85-.02,59.71.03,89.56,0,1.6.36,3.27.89,4.78.91,2.63,2.92,3.98,5.72,4.21.42.03.81.41,1.22.63-.43.23-.86.66-1.29.66-12.27.04-24.55.03-36.82,0-.42,0-1.16-.31-1.2-.57-.14-.85.64-.71,1.16-.76,3.51-.31,5.82-2.52,6.48-6.29.17-.94.25-1.9.25-2.86.01-56.23.02-112.46-.04-168.69,0-1.78-.46-3.66-1.14-5.31-.94-2.31-2.91-3.52-5.46-3.66-.31-.02-.65-.04-.93-.16-.18-.08-.39-.36-.37-.53.03-.23.22-.55.42-.62.32-.12.71-.08,1.06-.08,12.11,0,24.23,0,36.34,0,.28,0,.6-.08.83.03.27.13.57.4.66.67.04.14-.35.43-.57.62-.08.07-.23.07-.35.07-4.13-.1-6.37,3.32-6.73,6.89-.09.91-.16,1.83-.16,2.75,0,22.74,0,45.48,0,68.22,0,.43,0,.85,0,1.28.09.02.19.05.28.07Z"/>
        <path class="cls-1" fill="#E0CA8D" d="m261.4,130.9c0-3.87.01-7.75,0-11.62,0-.82.03-1.61,1.05-1.68.98-.06,1.22.7,1.36,1.5.73,4.06,2.08,7.87,4.53,11.22,3.53,4.83,8.36,7.4,14.26,8.05,13.66,1.52,23.41-8.29,25.72-19.83,1.8-8.99-1.69-15.9-8.33-21.6-4.72-4.05-10.08-7.17-15.36-10.39-5.42-3.31-10.84-6.64-15.5-11.02-4.69-4.41-8.11-9.57-9.03-16.07-1.13-7.96,1.34-14.86,6.67-20.72,6.42-7.06,14.61-10.33,24.06-10.68,5.5-.21,10.7.97,15.69,3.21,1.09.49,2.22.91,3.37,1.23,2.32.65,4.28.03,5.68-1.98.57-.81.94-1.77,1.56-2.54.33-.42,1-.57,1.51-.84.15.44.42.88.42,1.32.02,7.75.02,15.5-.01,23.26,0,.49-.18,1.17-.52,1.45-.81.66-1.69.06-2.02-1.14-.71-2.53-1.25-5.14-2.3-7.53-2.42-5.51-6.23-9.75-12.15-11.66-10.36-3.35-21.83,3.36-23.82,14.03-1.16,6.22.87,11.58,5.18,16.11,4.1,4.3,9.17,7.31,14.14,10.42,5.65,3.54,11.37,6.99,16.43,11.38,5.95,5.17,10.62,11.21,12.36,19.06,2.02,9.11,1.36,17.9-4.11,25.81-4.79,6.93-11.67,10.74-19.74,12.54-8.41,1.88-16.65,1.02-24.81-1.58-2.46-.78-5.01-1.38-7.56-1.71-2.81-.36-4.9,1.06-6.32,3.48-.22.38-.38.86-.71,1.09-.35.24-.87.32-1.3.3-.12,0-.29-.65-.29-1-.02-3.96-.01-7.91-.01-11.87h-.1Z"/>
        <path class="cls-1" fill="#E0CA8D" d="m197.23,31.51v1.41c0,33.49,0,66.98.02,100.47,0,1.22.15,2.49.51,3.65.67,2.21,2.16,3.57,4.57,3.8.39.04.75.38,1.12.58-.38.18-.76.51-1.15.51-9.68.03-19.35.03-29.03,0-.36,0-.71-.29-1.07-.44.28-.21.55-.59.83-.6,2.88-.06,5.04-2.03,5.43-6.05.05-.52.05-1.04.05-1.56,0-33.49,0-66.98,0-100.47v-1.32c-4.68-.48-9,.34-12.99,2.65-6.37,3.68-10.76,9.18-14.15,15.57-.58,1.09-1.05,2.24-1.59,3.35-.17.35-.36.79-.66.95-.42.22-1,.36-1.43.24-.21-.06-.37-.82-.3-1.22.79-4.68,1.62-9.36,2.44-14.04.36-2.04.71-4.09,1.09-6.13.58-3.14,1.96-4.35,5.16-4.35,21.11-.02,42.22-.02,63.33,0,3.15,0,4.6,1.08,5.2,4.19,1.05,5.45,1.91,10.93,2.85,16.39.23,1.34.5,2.67.66,4.02.05.39-.17,1.14-.36,1.18-.45.08-1.01-.09-1.41-.34-.29-.19-.41-.66-.57-1.02-3.23-7.15-7.62-13.38-14.23-17.83-4.29-2.89-9.01-4.14-14.31-3.61Z"/>
        <path class="cls-1" fill="#E0CA8D" d="m96.78,111.3c-1.14,4.58-2.29,9.14-3.42,13.7-.84,3.41-1.69,6.81-2.49,10.23-.17.73-.18,1.51-.14,2.26.1,1.93,1.21,3.05,3.14,3.31.32.04.66.04.94.16.17.07.36.35.35.52-.02.17-.26.35-.44.46-.12.07-.31.03-.47.03-4.72,0-9.44,0-14.15-.02-.29,0-.58-.26-.87-.4.27-.22.52-.62.8-.64,4.27-.38,6.32-3.22,7.29-6.91,2.07-7.83,3.92-15.71,5.86-23.58,3.86-15.61,7.72-31.21,11.57-46.82,2.67-10.8,5.33-21.61,8-32.42.6-2.41,1.95-3.58,4.11-3.6,2.31-.02,3.9,1.2,4.53,3.48,7.12,25.96,14.24,51.93,21.36,77.9,2.28,8.31,4.52,16.63,6.85,24.92.42,1.48,1.1,2.92,1.88,4.24.96,1.62,2.48,2.57,4.42,2.71.2.01.43-.01.59.08.21.13.36.35.53.54-.18.17-.34.41-.56.48-.25.09-.55.03-.83.03-9.91,0-19.83,0-29.74,0-.28,0-.58.06-.83-.02-.22-.07-.38-.3-.57-.45.17-.19.33-.39.52-.56.08-.07.23-.05.35-.05,3.22-.01,4.74-2.72,4.05-5.83-.79-3.58-1.81-7.11-2.75-10.66-1.08-4.09-2.2-8.17-3.26-12.26-.17-.66-.42-.91-1.12-.91-8.28.02-16.55.01-24.83.02-.19,0-.39.04-.65.07Zm12.84-51.37c-.06,0-.12,0-.19-.01-3.95,15.96-7.89,31.91-11.86,47.95h24.65c-4.21-16.03-8.41-31.98-12.6-47.94Z"/>
        <path class="cls-1" fill="#E0CA8D" d="m201.86,217.34h-86.33c-.3-.71-.14-1.05.61-1.01.32.02.64,0,.96,0,28.31,0,56.61,0,84.92.02.97,0,1.68-.2,2.2-1.05.27-.44.66-.8,1.02-1.17,2.02-2.03,3.99-2.37,6.15-.51,2.61,2.24,5.43,2.95,8.8,2.79,2.1-.1,3.68-.34,5.08-2.18,1.79-2.35,4.09-2.53,6.38-.6,2.58,2.17,5.35,3.19,8.68,2.71.04,0,.08,0,.12,0,1.98.26,3.45-.26,4.78-2.01,1.97-2.6,4.2-2.77,6.74-.68,2.47,2.04,5.1,3.19,8.33,2.69.12-.02.24-.02.36,0,2,.34,3.37-.36,4.63-2.04,1.95-2.59,4.25-2.86,6.73-.8,2.64,2.19,5.45,2.92,8.89,2.91,27.47-.13,54.93-.07,82.4-.07h1.54c.07.12.14.24.22.36-.26.23-.49.55-.79.66-.32.11-.71.03-1.07.03-26.75,0-53.49,0-80.24,0-.96,0-1.93.13-2.87.02-2.08-.22-3.72.65-5.27,1.86-1.04.82-2.05,1.67-3.1,2.45-1.67,1.25-3.43,1.3-5.08.05-.95-.72-1.79-1.59-2.6-2.47-1.89-2.03-4.8-2.64-7.23-1.27-1.45.82-2.79,1.86-4.09,2.91-3.17,2.55-4.85,2.48-7.75-.43-.39-.4-.78-.8-1.16-1.21-1.95-2.09-4.42-2.64-6.94-1.25-1.7.94-3.24,2.18-4.78,3.38-2.46,1.92-4.31,1.92-6.6-.19-.79-.73-1.56-1.5-2.24-2.33-1.45-1.79-3.37-2.03-5.24-1.21-1.9.84-3.78,1.94-5.35,3.3-3.35,2.89-5.53,2.38-8.3-.62-.7-.76-1.49-1.44-2.21-2.19-.16-.16-.17-.46-.3-.84Z"/>
        <path class="cls-1" fill="#E0CA8D" d="m367.69,199.17h-10.79c2.29-.51,2.07-2.28,2.07-3.96,0-10.47-.01-20.93,0-31.4,0-1.65.08-3.28-2.1-3.79.37-.02.74-.06,1.12-.06,4.32,0,8.64.1,12.95-.03,7.29-.22,11.66,5.76,11.09,12.22-.38,4.31-2.46,7.51-6.4,9.42-.18.09-.34.2-.63.36,2.67.77,3.64,2.86,4.3,5.14.64,2.22,1.09,4.5,1.78,6.7.35,1.12.91,2.22,1.6,3.16.41.55,1.24,1.35,1.96.08.07-.12.51-.11.73-.02.1.04.18.51.08.61-.56.55-1.09,1.26-1.78,1.52-3.64,1.36-7.23.93-8.7-3.35-.81-2.36-1.25-4.86-1.89-7.28-.31-1.15-.62-2.32-1.07-3.42-.65-1.59-1.86-2.44-3.65-2.35-.87.04-1.75,0-2.75,0-.03.48-.07.9-.07,1.32,0,3.84,0,7.67,0,11.51,0,2.41.06,2.52,2.17,3.62Zm-2.16-38v20.29c4.12.34,6.72-.9,8.33-4.17,1.97-3.99,1.96-8.1.14-12.13-1.01-2.23-2.71-3.76-5.28-3.97-1.03-.09-2.07-.01-3.2-.01Z"/>
        <path class="cls-1" fill="#E0CA8D" d="m302.86,199.17c2.12-.83,2.36-1.19,2.36-3.24,0-10.83,0-21.65,0-32.48,0-1.57-.09-3.02-2.1-3.44.37-.02.73-.07,1.1-.07,4.24,0,8.47,0,12.71,0,4.3,0,7.81,2.57,8.88,6.5,1.16,4.25-.4,8.05-4.23,10.32-.13.08-.26.18-.3.2,1.17.74,2.49,1.34,3.51,2.26,3.38,3.03,4.36,8.17,2.61,12.81-1.59,4.22-5.58,7.13-10.12,7.21-4.55.08-9.11.02-13.67.02-.15,0-.29-.04-.77-.1Zm8.98-1.19c4.49.42,7.1-1.1,8.57-5.04,1.23-3.29,1.28-6.65.16-9.97-1.4-4.15-4.37-5.79-8.73-4.88v19.89Zm-.1-21.37c3.87.53,6.42-.9,7.68-4.29.86-2.33.9-4.71.05-7.04-1.31-3.59-3.6-4.69-7.72-3.94v15.27Z"/>
        <path class="cls-1" fill="#E0CA8D"  d="m149.5,180.07c-.03,4.04-.67,8.51-2.68,12.7-2.26,4.73-5.96,7.1-11.26,6.98-5.07-.11-8.48-2.67-10.6-7.11-2.43-5.08-2.9-10.49-2.47-16.02.28-3.68,1.06-7.25,2.74-10.59,2.44-4.84,6.47-6.87,11.75-6.57,4.85.28,8.21,2.74,10.14,7.19,1.78,4.1,2.38,8.42,2.38,13.4Zm-6.72-3.42c-.12-1.49-.22-3.93-.53-6.34-.35-2.73-.9-5.45-2.52-7.78-1.55-2.24-3.92-2.47-5.58-.32-1.12,1.44-2.06,3.17-2.6,4.91-2.4,7.75-2.75,15.68-1.32,23.65.35,1.93,1.02,3.88,1.94,5.6,1.58,2.95,4.31,3.05,6.29.33.79-1.08,1.41-2.33,1.87-3.58,1.84-5.01,2.27-10.25,2.45-16.47Z"/>
        <path class="cls-1" fill="#E0CA8D" d="m179.09,160.03h10.6c-1.99.47-2.07,1.98-2.06,3.56.01,4.63,0,9.27,0,13.9v1.14c.08.02.15.05.23.07.38-.59.75-1.17,1.13-1.76,2.86-4.52,5.73-9.04,8.59-13.56.23-.37.47-.74.67-1.13.62-1.22.52-1.51-.98-2.19h5.7c-.13.11-.22.27-.32.28-1.44.16-2.41,1.04-3.14,2.18-2.5,3.9-4.98,7.81-7.42,11.74-.21.35-.23,1.01-.05,1.38,3.42,6.9,6.88,13.78,10.34,20.66.72,1.43,1.82,2.39,3.43,2.84h-10.81c.29-.4.91-.88.96-1.41.05-.61-.35-1.29-.65-1.88-2.46-4.88-4.94-9.75-7.57-14.93-.05.62-.09.94-.1,1.26,0,4.55,0,9.11,0,13.66,0,2.07.26,2.47,2.32,3.33h-10.84c2.17-.57,2.05-2.29,2.05-3.98,0-10.43,0-20.86,0-31.28,0-.24,0-.48,0-.72-.02-1.88-.39-2.41-2.06-3.15Z"/>
        <path class="cls-1" fill="#E0CA8D" d="m235.24,55.43c.09-.69.14-1.17.21-1.73,3.7.18,6.56-1.36,8.66-4.32,1.06-1.5,1.65-3.18,1.21-5.25-1.21,0-2.44.09-3.64-.02-5.36-.47-9.03-5.02-8.24-10.15.51-3.29,3.43-6.09,7.15-6.86,6.38-1.32,11.69,2.47,12.68,9.3.85,5.9-.64,11.2-5.07,15.4-3.62,3.42-8.03,4.3-12.96,3.63Z"/>
        <path class="cls-1" fill="#E0CA8D" d="m214.98,161.01c-2.57-.29-4.67.54-6.28,2.26-1.32,1.41-2.3,3.12-3.44,4.7-.24.33-.48.67-.72,1-.13-.06-.26-.12-.4-.18.18-1.16.35-2.32.55-3.47.21-1.26.47-2.51.67-3.77.17-1.07.74-1.62,1.85-1.61,7.31,0,14.63,0,21.94,0,.92,0,1.59.36,1.76,1.29.45,2.39.85,4.79,1.25,7.19.02.13-.11.28-.28.69-.35-.53-.62-.86-.81-1.23-1.13-2.24-2.55-4.24-4.69-5.64-1.44-.95-3.01-1.45-4.94-1.24v1.27c0,11.15,0,22.29,0,33.44,0,1.56.14,2.99,2.07,3.45h-10.59c2.17-.51,2.05-2.2,2.05-3.86,0-10.95,0-21.89,0-32.84v-1.45Z"/>
        <path class="cls-1" fill="#E0CA8D" d="m255.69,199.17h-10.84c.42-.44,1.13-.86,1.3-1.44.19-.62-.06-1.4-.24-2.09-.52-2.05-1.06-4.09-1.67-6.12-.1-.34-.57-.8-.88-.81-2.48-.07-4.96-.04-7.44-.04-.28,0-.55.02-.98.04-.68,2.8-1.4,5.61-2.02,8.44-.23,1.04-.03,1.19,1.52,2.02h-5.47c.05-.1.09-.27.15-.28,1.66-.23,2.3-1.39,2.66-2.84,2.23-9.11,4.47-18.21,6.7-27.31.64-2.6,1.29-5.19,1.91-7.79.2-.85.53-1.52,1.55-1.5.96.02,1.38.57,1.62,1.45,3.16,11.62,6.35,23.24,9.52,34.85.4,1.47.72,3,2.6,3.4Zm-11.94-11.69c-1.45-5.53-2.86-10.91-4.27-16.3-.08.01-.15.03-.23.04-1.32,5.39-2.64,10.78-3.98,16.26h8.48Z"/>
        <path class="cls-1" fill="#E0CA8D" d="m334.54,188.68c-.69,2.75-1.36,5.42-2.01,8.08-.29,1.17.03,2.03,1.34,2.4h-5.3c2.28-.51,2.61-2.38,3.06-4.22,2.75-11.28,5.54-22.55,8.3-33.82.21-.86.44-1.64,1.54-1.66,1.11-.01,1.47.71,1.72,1.64,3.16,11.62,6.33,23.24,9.5,34.86.39,1.42.83,2.78,2.57,3.19h-10.83c.4-.43,1.15-.9,1.29-1.5.17-.71-.12-1.56-.32-2.33-.5-1.97-1.03-3.94-1.61-5.89-.09-.3-.46-.72-.71-.73-2.83-.05-5.66-.03-8.55-.03Zm4.51-17.5c-.08.02-.16.03-.24.05-1.32,5.39-2.64,10.78-3.96,16.2h8.45c-1.43-5.48-2.84-10.87-4.25-16.25Z"/>
        <path class="cls-1" fill="#E0CA8D" d="m119.78,159.32c0,2.75,0,5.5,0,8.25,0,.23-.05.47-.08.7-.1.06-.21.12-.31.18-.2-.31-.42-.61-.59-.95-.72-1.45-1.18-3.1-2.18-4.31-2.45-2.96-6.19-2.82-8.69.11-1.77,2.07-2.59,4.56-3.12,7.16-1.4,6.83-1.41,13.65.58,20.37.52,1.76,1.4,3.51,2.51,4.96,2.45,3.21,6.54,3.2,8.97,0,.93-1.22,1.33-2.85,1.99-4.28.1-.23.3-.41.45-.61.15.19.39.36.44.57.08.34.03.71.03,1.07,0,2.46,0,4.92-.26,7.5-.22-.23-.47-.43-.65-.7-.93-1.41-1.41-1.64-2.97-1-2.46,1.01-4.95,1.51-7.59.96-3.9-.81-6.91-2.85-8.72-6.46-2.37-4.73-2.94-9.82-2.72-15.02.18-4.27,1-8.39,3.11-12.17,2.69-4.84,9.2-7.25,14.4-5.3.63.24,1.26.51,1.89.76,1.12.44,1.93.09,2.5-.95.19-.35.45-.66.68-.98.11.05.22.1.34.14Z"/>
        <path class="cls-1" fill="#E0CA8D" d="m176.09,200.03c-.21-.25-.45-.48-.62-.75-.86-1.34-1.33-1.43-2.9-1-1.79.49-3.62,1.16-5.44,1.16-4.9,0-8.68-2.22-10.94-6.65-2.4-4.72-2.93-9.82-2.7-15.02.19-4.27,1.02-8.38,3.13-12.17,2.65-4.77,9.16-7.18,14.32-5.28.64.23,1.25.54,1.88.76,1.29.45,1.86.22,2.58-.98.2-.33.47-.62.92-1.2v9.38c-.12.05-.25.11-.37.16-.18-.34-.38-.67-.55-1.01-.72-1.44-1.2-3.1-2.21-4.3-2.44-2.9-6.13-2.77-8.61.1-1.81,2.09-2.65,4.62-3.17,7.26-1.44,7.32-1.44,14.61,1.07,21.72.5,1.43,1.37,2.82,2.38,3.96,2.42,2.72,6.17,2.67,8.43-.19,1-1.26,1.45-2.95,2.18-4.44.12-.25.35-.45.52-.67.14.25.39.49.39.74.03,2.75.02,5.5.02,8.25-.1.05-.2.1-.31.15Z"/>
        <path class="cls-1" fill="#E0CA8D" d="m280.61,160.08c-2.19.51-2.07,2.21-2.06,3.87.02,5.51.02,11.03.04,16.54.02,5.51.05,11.03.08,16.54,0,.35.03.71.05,1.05,6.73,1.35,10.37-2.42,12.96-7.97.12.09.24.18.35.27,0,.28.04.57,0,.85-.36,2.16-.74,4.32-1.11,6.49-.17.99-.66,1.58-1.76,1.57-6.24-.01-12.47,0-18.71,0-.14,0-.28-.04-.55-.18,2.47-.41,2.22-2.2,2.21-3.88-.02-10.59-.03-21.18-.04-31.76,0-2.09-.3-2.54-2.44-3.36h10.97Z"/>
        <path class="cls-1" fill="#E0CA8D" d="m257.3,160.04h10.59c-1.91.47-2.05,1.89-2.05,3.45.01,10.74.01,21.48,0,32.23,0,1.56.14,2.99,2.06,3.45h-10.58c2.11-.55,2.05-2.21,2.05-3.87,0-10.66,0-21.33,0-31.99,0-2.01-.36-2.53-2.06-3.27Z"/>
        <path class="cls-2" d="m109.62,59.93c4.19,15.95,8.39,31.91,12.6,47.94h-24.65c3.97-16.03,7.91-31.99,11.86-47.95.06,0,.12,0,.19.01Z"/>
        <path class="cls-2" d="m365.53,161.16c1.13,0,2.17-.07,3.2.01,2.57.21,4.27,1.74,5.28,3.97,1.82,4.04,1.82,8.14-.14,12.13-1.61,3.27-4.21,4.52-8.33,4.17v-20.29Z"/>
        <path class="cls-2" d="m311.83,197.98v-19.89c4.36-.91,7.33.73,8.73,4.88,1.12,3.33,1.07,6.68-.16,9.97-1.47,3.94-4.07,5.47-8.57,5.04Z"/>
        <path class="cls-2" d="m311.74,176.61v-15.27c4.13-.75,6.41.35,7.72,3.94.85,2.33.82,4.71-.05,7.04-1.25,3.39-3.8,4.82-7.68,4.29Z"/>
        <path class="cls-2" d="m142.78,176.65c-.18,6.22-.61,11.46-2.45,16.47-.46,1.26-1.09,2.5-1.87,3.58-1.98,2.72-4.71,2.62-6.29-.33-.93-1.72-1.6-3.67-1.94-5.6-1.43-7.97-1.08-15.89,1.32-23.65.54-1.75,1.48-3.47,2.6-4.91,1.67-2.14,4.03-1.91,5.58.32,1.62,2.33,2.16,5.04,2.52,7.78.31,2.41.41,4.84.53,6.34Z"/>
        <path class="cls-2" d="m243.75,187.48h-8.48c1.34-5.47,2.66-10.86,3.98-16.26.08-.01.15-.03.23-.04,1.41,5.39,2.82,10.77,4.27,16.3Z"/>
        <path class="cls-2" d="m339.05,171.18c1.41,5.38,2.81,10.77,4.25,16.25h-8.45c1.33-5.42,2.64-10.81,3.96-16.2.08-.02.16-.03.24-.05Z"/>
    </g>
</svg>