<?xml version="1.0" encoding="UTF-8"?><svg id="Layer_2" xmlns="http://www.w3.org/2000/svg" viewBox="0 0 293.29 46.4"><defs><style>.cls-1{fill:none;stroke:#e0ca8d;stroke-linecap:square;stroke-miterlimit:10;stroke-width:2px;}.cls-2{fill:#e0ca8d;}</style></defs><g id="Layer_2-2"><g><line class="cls-1" x1="1.76" y1="8.4" x2="79.76" y2="8.4"/><line class="cls-1" x1="146.95" y1="2.48" x2="146.82" y2="18.32"/><path class="cls-1" d="M94.76,1.4c6.2,4.53,24.54,16.7,51,17,27.68,.31,46.91-12.55,53-17"/><path class="cls-1" d="M83.76,2.4c5.58,4.79,28.52,23.36,63,23,33.23-.35,55.23-18.05,61-23"/><path class="cls-1" d="M221.65,2.4c-5.74,5.71-14.96,13.58-28,20-13.08,6.44-25.96,8.94-34,10-.15-.04,0,0,0,0-.23,4-.45,6.45-3,9-2,2-4,4-9,4h.11c-5,0-7-2-9-4-2.55-2.55-3.77-5-4-9,0,0,.15-.04,0,0-8.04-1.06-19.92-3.56-33-10-13.04-6.42-22.26-14.29-28-20"/><circle class="cls-2" cx="146.76" cy="34.52" r="3.51"/><line class="cls-1" x1="143.25" y1="2.4" x2="138.3" y2="17.99"/><line class="cls-1" x1="138.3" y1="2.4" x2="129.48" y2="16.68"/><line class="cls-1" x1="131.5" y1="2.4" x2="119.09" y2="13.9"/><line class="cls-1" x1="119.09" y1="2.4" x2="107.34" y2="9.04"/><line class="cls-1" x1="214.32" y1="9.04" x2="291.53" y2="8.15"/><circle class="cls-2" cx="2.76" cy="8.4" r="2.76"/><circle class="cls-2" cx="290.53" cy="8.15" r="2.76"/><line class="cls-1" x1="150.76" y1="2.4" x2="155.71" y2="17.99"/><line class="cls-1" x1="155.71" y1="2.4" x2="164.53" y2="16.68"/><line class="cls-1" x1="162.51" y1="2.4" x2="174.92" y2="13.9"/><line class="cls-1" x1="174.92" y1="2.4" x2="186.67" y2="9.04"/></g></g></svg>